# Blender 4.0.1
# www.blender.org
o Truck
v -3.484341 0.955128 1.274670
v -3.484341 0.238998 1.274670
v 2.669380 -0.103367 1.274668
v 2.669379 0.812746 1.095130
v -3.484342 0.955127 -0.725330
v -3.484341 0.238998 -0.725330
v 2.669379 -0.103367 -0.725332
v 2.669379 0.812745 -0.545794
v -3.274495 0.038144 1.274670
v -3.274495 0.038143 -0.725330
v 2.768615 0.683037 -0.545794
v 2.768616 -0.064265 -0.656619
v 2.768616 0.683037 1.095130
v 2.768616 -0.064265 1.205955
v 2.863538 0.064818 1.095130
v 2.863538 0.350811 1.095130
v 2.863538 0.064818 -0.545794
v 2.863537 0.350811 -0.545794
v 2.634862 0.750805 1.205955
v 2.716841 0.656924 1.205955
v 2.634862 0.750805 -0.656619
v 2.716840 0.656924 -0.656619
v 2.574458 0.675361 1.274668
v 2.617604 0.617769 1.274668
v 2.574457 0.675361 -0.725332
v 2.617604 0.617769 -0.725332
v 2.755672 0.392866 1.205955
v 2.755672 0.392866 -0.656619
v 2.656230 0.392866 1.274668
v 2.656229 0.392866 -0.725332
v 2.816077 -0.026674 1.095130
v 2.816077 -0.026674 -0.545794
v 0.418868 1.716706 1.170419
v 0.550136 1.672616 1.170419
v -0.701093 1.716706 1.170420
v -0.639181 1.652998 1.274669
v 0.396030 1.652998 1.274669
v 0.501198 1.607345 1.274669
v 0.501198 1.607345 -0.725331
v 0.396030 1.652998 -0.725331
v -0.639182 1.652998 -0.725331
v -0.701094 1.716706 -0.621081
v 0.550135 1.672616 -0.621082
v 0.418867 1.716706 -0.621082
v -3.652091 0.213298 -0.667940
v -3.652090 0.213298 1.217281
v -3.649610 0.067667 1.217281
v -3.649611 0.067667 -0.667940
v -3.610140 0.013395 1.217281
v -3.610141 0.013395 -0.667940
v -2.173826 -0.508320 -0.729417
v -1.992743 -0.544339 -0.729417
v -2.286447 0.222554 -0.790555
v -2.151696 0.312592 -0.790555
v -1.992746 0.344209 -0.790555
v -1.992743 -0.486506 -0.790555
v -2.151694 -0.454889 -0.790555
v -2.286446 -0.364851 -0.790555
v -2.376484 -0.230099 -0.790555
v -2.408102 -0.071149 -0.790555
v -2.376485 0.087802 -0.790555
v -1.992744 -0.544339 0.885185
v -2.173825 -0.508319 1.278756
v -1.992743 -0.544338 1.278756
v -2.286446 0.222554 1.339893
v -2.151695 0.312592 1.339893
v -1.992745 0.344210 1.339893
v -1.992743 -0.486505 1.339894
v -2.151693 -0.454889 1.339894
v -2.286445 -0.364851 1.339894
v -2.376484 -0.230099 1.339894
v -2.408101 -0.071148 1.339894
v -2.376484 0.087802 1.339893
v -2.268969 -0.185565 1.339894
v -2.107159 -0.347374 1.339894
v 1.956864 -0.539377 -0.729417
v 2.137946 -0.503357 -0.729417
v 2.291460 -0.400782 -0.729418
v 1.956861 0.349171 -0.790555
v 2.115812 0.317554 -0.790556
v 2.250564 0.227517 -0.790555
v 2.340603 0.092765 -0.790556
v 2.372220 -0.066185 -0.790555
v 2.340603 -0.225136 -0.790555
v 2.250566 -0.359888 -0.790555
v 2.115814 -0.449926 -0.790555
v 1.956864 -0.481544 -0.790555
v 1.956864 -0.539377 1.278755
v 2.137946 -0.503357 1.278755
v 2.291460 -0.400782 1.278755
v 1.956862 0.349171 1.339893
v 2.115812 0.317555 1.339893
v 2.250564 0.227517 1.339893
v 2.340603 0.092765 1.339893
v 2.372221 -0.066185 1.339893
v 2.340604 -0.225136 1.339893
v 2.250566 -0.359888 1.339893
v 2.115814 -0.449926 1.339893
v 1.956864 -0.481544 1.339893
v -1.600239 0.943697 1.274669
v -1.631196 0.975551 0.326794
v -1.600240 0.943696 -0.725331
v -1.631195 0.975551 1.222545
v -1.631196 0.975550 -0.673206
vn 0.5652 0.0150 0.8248
vn 0.5652 0.0150 -0.8248
vn 0.8877 -0.4605 -0.0000
vn 0.5684 0.0161 0.8226
vn 0.5684 0.0161 -0.8226
vn 0.3184 0.9480 -0.0000
vn -0.5814 0.4208 -0.6963
vn -0.7245 -0.2424 0.6452
vn -0.8147 0.3442 0.4667
vn -0.9331 -0.3462 -0.0978
vn -0.7484 -0.6205 0.2343
vn -0.4808 -0.8147 -0.3242
vn -0.2211 -0.8468 -0.4838
vn 0.2335 -0.4011 -0.8858
vn -0.1194 -0.8686 -0.4808
vn -0.1994 -0.3604 -0.9113
vn -0.2455 -0.8781 0.4107
vn -0.0893 -0.9282 0.3611
vn -0.0572 -0.4029 0.9135
vn -0.0000 -0.0000 1.0000
vn -0.1330 -0.9911 -0.0000
vn -0.2925 -0.3375 0.8947
vn 0.5059 -0.7146 -0.4831
vn 0.1080 -0.5549 -0.8249
vn 0.2915 -0.3527 -0.8892
vn 0.3957 -0.8755 -0.2775
vn 0.2671 0.7952 0.5444
vn -0.0000 1.0000 -0.0000
vn -0.0000 0.8533 0.5215
vn -0.0000 0.8533 0.5214
vn -0.1315 -0.2382 0.9623
vn 0.3172 -0.0775 0.9452
vn 0.0130 0.0655 0.9978
vn -0.2169 0.3127 0.9248
vn 0.0477 0.1100 0.9928
vn 0.2916 0.6716 0.6811
vn 0.3142 0.7337 0.6025
vn -0.0000 0.0500 0.9988
vn 0.2786 -0.1357 0.9508
vn 0.3335 0.7749 0.5370
vn 0.3760 0.9266 -0.0000
vn 0.2671 0.7952 -0.5444
vn -0.0000 0.8533 -0.5214
vn -0.0000 0.8533 -0.5215
vn -0.1227 0.9924 -0.0000
vn -0.4351 0.9004 -0.0000
vn -0.3169 0.7139 0.6245
vn -0.0001 0.0498 0.9988
vn 0.3243 -0.0296 0.9455
vn 0.3329 0.0162 0.9428
vn 0.3348 -0.0185 0.9421
vn 0.0167 0.3329 0.9428
vn 0.3207 -0.0862 0.9433
vn 0.0835 0.3247 0.9421
vn 0.1211 -0.2335 0.9648
vn 0.0652 0.0975 0.9931
vn -0.2729 0.0803 0.9587
vn 0.0516 0.1147 0.9921
vn 0.0479 -0.2250 0.9732
vn 0.2427 0.5398 0.8060
vn 0.4411 0.3852 0.8106
vn 0.6453 0.5635 0.5159
vn -0.0320 0.1304 0.9910
vn -0.3103 -0.0891 0.9465
vn 0.1429 -0.2355 0.9613
vn -0.0125 0.0626 0.9980
vn 0.3335 0.7749 -0.5370
vn 0.3142 0.7337 -0.6025
vn 0.7063 0.5404 0.4573
vn 0.7942 0.6076 -0.0000
vn 0.2916 0.6716 -0.6811
vn 0.0477 0.1100 -0.9928
vn 0.3172 -0.0775 -0.9452
vn -0.1310 -0.2371 -0.9626
vn 0.0130 0.0655 -0.9978
vn 0.2776 -0.1350 -0.9512
vn -0.0000 0.0500 -0.9988
vn -0.3169 0.7139 -0.6245
vn -0.9754 0.2206 -0.0000
vn -0.9153 -0.2741 0.2950
vn -0.6566 -0.3738 0.6551
vn -0.3237 -0.0000 0.9462
vn -0.0605 -0.0000 0.9982
vn -0.0509 0.0101 0.9987
vn -0.0457 0.0168 0.9988
vn -0.0392 0.0262 0.9989
vn -0.0328 0.0353 0.9988
vn -0.0284 0.0425 0.9987
vn -0.1852 0.2771 0.9428
vn -0.0642 -0.0128 0.9979
vn 0.3311 0.0257 0.9433
vn 0.1150 -0.2672 0.9568
vn 0.1031 0.0689 0.9923
vn -0.2320 0.0939 0.9682
vn 0.0982 0.0735 0.9924
vn -0.1174 -0.1848 0.9757
vn 0.3300 0.0368 0.9433
vn 0.3284 0.0492 0.9433
vn 0.3037 -0.1373 0.9428
vn 0.1316 0.3049 0.9433
vn 0.4445 0.3330 0.8316
vn 0.5417 0.0930 0.8354
vn 0.5665 0.0833 0.8198
vn 0.7326 0.1077 0.6721
vn 0.8552 0.2443 0.4571
vn 0.7063 0.5404 -0.4573
vn 0.6453 0.5635 -0.5159
vn 0.4411 0.3851 -0.8106
vn 0.2427 0.5398 -0.8060
vn 0.9615 0.2747 -0.0000
vn 0.0516 0.1147 -0.9921
vn 0.0652 0.0975 -0.9931
vn 0.1214 -0.2347 -0.9645
vn -0.2729 0.0803 -0.9587
vn 0.2356 0.2357 -0.9428
vn 0.2107 -0.2567 -0.9433
vn -0.2592 0.2127 -0.9421
vn 0.3127 -0.1118 -0.9433
vn -0.0000 -0.0000 -1.0000
vn 0.1041 0.3187 -0.9421
vn 0.3329 0.0401 -0.9421
vn -0.2484 -0.2223 -0.9428
vn -0.2193 0.2536 -0.9421
vn 0.3345 0.0229 -0.9421
vn -0.2915 -0.1656 -0.9421
vn -0.1597 0.2911 -0.9433
vn 0.3351 0.0122 -0.9421
vn 0.3353 0.0038 -0.9421
vn -0.3336 -0.0330 -0.9421
vn -0.0315 0.3306 -0.9432
vn -0.3353 -0.0004 -0.9421
vn 0.3321 0.0004 -0.9432
vn 0.0323 0.3306 -0.9432
vn 0.3336 -0.0339 -0.9421
vn -0.3078 -0.0777 -0.9483
vn -0.0001 0.0498 -0.9988
vn 0.3231 -0.0293 -0.9459
vn 0.1424 -0.2344 -0.9617
vn -0.3120 -0.0900 -0.9458
vn -0.0125 0.0626 -0.9980
vn 0.0141 -0.1987 -0.9800
vn -0.0320 0.1304 -0.9910
vn -0.0284 0.0425 -0.9987
vn 0.2877 0.0958 -0.9529
vn 0.2676 -0.1129 -0.9569
vn -0.0442 0.0186 -0.9988
vn 0.0525 -0.3082 -0.9499
vn 0.2317 -0.1657 -0.9586
vn -0.0605 -0.0000 -0.9982
vn -0.3237 -0.0000 -0.9462
vn -0.6692 -0.3916 -0.6315
vn -0.4728 -0.5544 0.6849
vn -0.3229 -0.0055 0.9464
vn -0.6688 0.3547 0.6533
vn -0.7373 -0.0619 0.6728
vn -0.1236 -0.6617 0.7395
vn -0.1923 -0.1399 0.9713
vn -0.5832 -0.4229 0.6936
vn -0.1547 -0.1617 0.9746
vn -0.1135 -0.1186 0.9864
vn -0.0817 -0.0546 0.9952
vn 0.2675 -0.1988 0.9428
vn 0.1939 0.2711 0.9428
vn 0.1344 -0.3005 0.9443
vn 0.1685 0.0335 0.9851
vn -0.1662 0.0817 0.9827
vn 0.0228 -0.2700 0.9626
vn 0.1768 0.0304 0.9838
vn 0.1177 -0.8741 0.4713
vn -0.1445 -0.4111 0.9001
vn 0.0154 -0.4092 0.9123
vn 0.1830 -0.3219 0.9289
vn 0.1615 -0.2915 0.9428
vn 0.2891 0.1659 0.9428
vn -0.3330 -0.0150 0.9428
vn 0.2191 -0.2511 0.9428
vn 0.2472 0.2236 0.9428
vn -0.0913 -0.1372 0.9863
vn 0.2151 0.0057 0.9766
vn 0.7203 0.0204 0.6933
vn 1.0000 -0.0000 -0.0000
vn 0.7595 -0.0000 0.6505
vn 0.8552 0.2443 -0.4571
vn 0.5665 0.0833 -0.8198
vn 0.5417 0.0930 -0.8354
vn 0.4445 0.3330 -0.8316
vn 0.7326 0.1077 -0.6721
vn 0.0982 0.0735 -0.9924
vn -0.1181 -0.1858 -0.9755
vn 0.1258 0.0567 -0.9904
vn -0.0150 0.0941 -0.9955
vn -0.2332 0.0939 -0.9679
vn 0.1685 0.0335 -0.9851
vn 0.3333 -0.0000 -0.9428
vn -0.0326 -0.3316 -0.9428
vn 0.2787 -0.1862 -0.9421
vn -0.2107 -0.2567 -0.9433
vn 0.0209 -0.1671 -0.9857
vn -0.1497 -0.2106 -0.9661
vn -0.1135 -0.1186 -0.9864
vn -0.0817 -0.0546 -0.9952
vn -0.1554 -0.2326 -0.9601
vn -0.0642 -0.0128 -0.9979
vn 0.1842 0.2135 -0.9594
vn -0.2866 -0.0441 -0.9570
vn -0.1547 -0.1617 -0.9746
vn -0.1554 -0.2325 0.9601
vn -0.1497 -0.2106 0.9661
vn -0.6681 -0.1194 0.7344
vn -0.3414 -0.9399 -0.0000
vn -0.0776 0.0019 0.9970
vn 0.2780 -0.1843 0.9427
vn 0.0080 0.2301 0.9731
vn 0.1200 -0.8685 -0.4809
vn 0.3578 -0.8637 0.3549
vn 0.0013 -1.0000 -0.0000
vn 0.5059 -0.7146 0.4831
vn 0.5664 -0.7140 0.4116
vn 0.6209 -0.7839 -0.0000
vn 0.8662 -0.4493 0.2185
vn 0.5763 -0.8172 -0.0000
vn 0.7595 -0.0000 -0.6505
vn 0.7203 0.0204 -0.6933
vn 0.2151 0.0057 -0.9766
vn 0.1768 0.0304 -0.9838
vn 0.2092 -0.0416 -0.9770
vn -0.0166 -0.2924 -0.9561
vn 0.0080 0.2302 -0.9731
vn 0.2513 -0.1679 -0.9532
vn 0.4551 -0.5689 -0.6850
vn 0.1430 -0.7190 -0.6801
vn 0.2173 -0.5797 -0.7853
vn -0.2738 -0.6729 -0.6872
vn 0.8662 -0.4493 -0.2185
vn 0.5664 -0.7140 -0.4116
vt 0.000000 0.000000
vt 1.000000 0.000000
vt 1.000000 1.000000
vt 0.000000 1.000000
vt 0.159588 0.528119
vt 0.101894 0.601617
vt 0.080944 0.580667
vt 0.170926 0.555491
vt 0.402819 0.601617
vt 0.333786 0.555491
vt 0.310971 0.610570
vt 0.796877 0.875299
vt 0.531022 1.000015
vt 0.796877 1.000015
vt 0.009943 0.752080
vt 0.055768 0.670650
vt 0.039571 0.752080
vt 0.028395 0.659312
vt 0.402819 0.902541
vt 0.333787 0.948668
vt 0.500000 0.000000
vt 1.000000 0.500000
vt 0.252357 0.964865
vt 0.448945 0.833508
vt 0.500000 0.500000
vt 0.448945 0.670649
vt 0.465142 0.752079
vt 0.252356 0.539293
vt 0.170927 0.948668
vt 0.101894 0.902542
vt 0.055768 0.833509
vt 0.796840 1.000239
vt 0.530985 0.875521
vt 0.530985 0.750805
s 0
f 14/1/1 29/2/1 3/3/1
f 30/1/2 12/2/2 7/3/2
f 17/2/3 31/4/3 32/1/3
f 14/1/4 27/2/4 29/3/4
f 12/1/5 30/2/5 28/3/5
f 34/2/6 44/4/6 33/1/6
s 1
f 45/2/7 47/4/8 46/1/9
f 48/2/10 49/4/11 47/1/8
s 0
f 17/2/3 15/3/3 31/4/3
f 34/2/6 43/3/6 44/4/6
s 1
f 45/2/7 48/3/10 47/4/8
f 48/2/10 50/3/12 49/4/11
f 51/5/13 56/6/14 52/7/15
f 51/5/13 57/8/16 56/6/14
f 63/5/17 64/7/18 68/6/19
s 0
f 72/9/20 71/10/20 74/11/20
s 1
f 63/12/17 62/13/21 64/14/18
f 63/5/17 68/6/19 69/8/22
f 78/15/23 86/16/24 85/17/25
f 78/15/23 77/18/26 86/16/24
s 0
f 37/3/27 34/1/27 33/2/27
f 44/1/28 42/2/28 35/1/28
f 44/1/28 35/1/28 33/1/28
f 35/3/29 36/2/29 37/1/29
f 35/3/30 37/1/30 33/4/30
f 91/19/31 92/20/32 37/1/33
f 92/20/34 38/3/35 37/1/35
f 38/3/36 19/1/36 37/1/36
f 19/1/37 34/1/37 37/3/37
f 36/2/38 91/19/39 37/1/38
f 19/2/40 4/1/40 34/1/40
f 4/2/41 8/1/41 43/1/41
f 4/2/41 43/1/41 34/1/41
f 43/1/42 40/3/42 44/2/42
f 40/1/43 41/3/43 42/2/43
f 40/1/44 42/2/44 44/1/44
f 42/1/45 104/1/45 5/1/45 1/2/45 101/21/45
f 42/1/46 101/21/46 1/2/46 103/21/46 35/1/46
f 1/2/47 100/2/47 36/2/47 35/3/47 103/22/47
f 36/2/48 67/1/48 91/19/49
f 67/1/20 72/1/20 91/19/50
s 1
f 72/1/20 92/20/51 91/19/52
s 0
f 72/1/20 93/23/53 92/20/54
s 1
f 93/23/55 23/1/56 92/20/57
s 0
f 23/1/58 38/3/58 92/20/59
f 23/1/60 19/2/60 38/3/60
f 23/1/61 20/4/61 19/1/61
f 20/4/62 4/1/62 19/2/62
f 1/2/63 66/1/63 36/2/63 100/2/63
f 66/24/64 67/19/65 36/2/66
f 8/1/67 21/2/67 43/1/67
f 21/2/68 40/3/68 43/1/68
f 20/2/69 13/1/69 4/1/69
f 13/2/70 11/1/70 8/1/70
f 13/2/70 8/1/70 4/2/70
f 21/2/71 39/2/71 40/1/71
f 39/2/72 80/1/72 40/1/72
f 80/20/73 79/19/74 40/1/75
f 79/19/76 41/3/77 40/1/77
f 41/3/78 102/25/78 5/1/78 104/1/78 42/1/78
s 1
f 5/1/79 45/3/7 46/4/9
s 0
f 5/1/79 46/4/80 1/2/79
f 46/4/81 2/3/82 1/2/82
f 2/3/83 72/1/83 1/2/83
s 1
f 72/9/84 73/26/85 1/2/86
f 73/26/85 65/27/87 1/2/86
f 65/27/87 66/24/88 1/2/86
f 66/24/89 72/1/20 67/1/20
s 0
f 66/24/20 65/27/20 72/1/20
f 65/27/20 73/26/20 72/9/20
s 1
f 2/3/90 71/10/90 72/9/90
f 71/10/20 70/28/20 69/8/22
f 71/10/20 69/8/22 68/6/19
s 0
f 71/10/20 68/6/20 75/1/20
f 71/10/20 75/1/20 74/11/20
f 74/11/20 93/23/91 72/1/20
f 94/29/92 24/1/93 93/23/94
f 24/2/95 23/3/95 93/23/96
f 74/11/20 75/1/20 93/23/97
f 75/1/20 68/6/20 93/23/98
s 1
f 68/6/20 94/29/99 93/23/100
s 0
f 24/3/101 20/4/101 23/1/101
f 24/2/102 29/1/102 20/4/102
f 29/3/103 27/2/103 20/1/103
f 27/4/104 16/1/104 20/1/104
f 16/1/105 13/1/105 20/2/105
f 11/3/106 22/4/106 8/1/106
f 22/4/107 21/1/107 8/1/107
f 22/4/108 25/2/108 21/1/108
f 25/2/109 39/2/109 21/2/109
f 16/1/110 18/2/110 11/1/110
f 16/1/110 11/1/110 13/2/110
f 25/2/111 80/1/111 39/2/111
f 25/2/112 81/23/113 80/20/114
f 81/23/115 82/29/116 80/20/117
f 82/29/118 58/1/119 80/20/120
s 1
f 58/28/119 59/10/119 80/20/121
f 59/10/119 60/9/119 80/20/121
s 0
f 60/9/122 61/26/123 80/20/124
f 61/26/125 53/27/126 80/20/127
s 1
f 53/27/119 54/24/119 80/20/128
s 0
f 54/24/129 55/19/130 80/20/131
s 1
f 55/19/132 79/19/133 80/20/134
s 0
f 55/19/135 41/3/136 79/19/137
s 1
f 55/19/138 54/24/139 41/3/140
s 0
f 54/24/141 5/1/142 102/25/142 41/3/142
f 54/24/143 53/27/143 5/1/143
s 1
f 53/27/144 61/26/145 5/1/146
f 61/26/145 60/9/147 5/1/146
s 0
f 60/9/148 6/4/149 5/1/149
f 6/4/150 45/3/151 5/1/150
f 47/4/152 2/3/153 46/4/154
f 47/1/155 49/4/156 2/3/157
f 49/4/158 9/4/159 2/3/159
f 9/4/160 70/1/160 2/3/160
f 70/28/161 71/10/161 2/3/161
f 68/6/20 95/30/162 94/29/163
s 1
f 95/30/164 24/1/165 94/29/166
s 0
f 95/30/167 29/1/168 24/2/168
s 1
f 64/7/18 88/1/169 68/6/19
f 88/7/169 99/6/170 68/6/19
f 99/6/170 98/16/171 68/6/19
f 98/16/171 97/17/172 68/6/19
s 0
f 97/17/173 96/31/174 68/6/175
f 96/31/176 95/30/177 68/6/20
f 95/30/178 3/3/179 29/1/179
f 14/1/180 16/1/180 27/4/180
f 15/1/181 17/2/181 18/4/181
f 15/1/181 18/4/181 16/1/181
f 14/1/182 15/1/182 16/4/182
f 18/2/183 22/4/183 11/3/183
f 28/3/184 30/2/184 22/1/184
f 30/2/185 26/1/185 22/1/185
f 26/4/186 25/1/186 22/4/186
f 18/2/187 28/2/187 22/1/187
f 26/4/188 81/23/189 25/2/188
s 1
f 26/4/190 82/29/191 81/23/192
f 26/4/190 83/30/193 82/29/191
s 0
f 83/30/194 84/31/195 82/29/119
s 1
f 84/31/119 85/17/119 82/29/119
s 0
f 85/17/196 86/16/197 82/29/119
s 1
f 86/16/119 87/6/119 82/29/119
s 0
f 87/6/119 56/1/119 82/29/119
s 1
f 56/6/14 57/8/16 82/29/198
f 57/8/16 58/28/119 82/29/198
s 0
f 50/1/199 10/1/199 58/1/199
f 10/3/200 6/4/200 58/1/200
f 6/4/201 59/10/201 58/28/201
f 57/8/202 50/1/202 58/1/202
f 6/4/203 60/9/204 59/10/203
s 1
f 50/2/12 48/3/10 6/1/205
f 48/2/10 45/3/7 6/4/205
s 0
f 10/1/206 50/1/206 6/1/206
s 1
f 63/5/17 69/8/22 49/1/11
s 0
f 69/8/207 70/28/207 49/1/207
f 70/1/208 9/4/208 49/4/209
f 50/1/210 51/1/210 63/1/210
s 1
f 50/1/12 63/1/17 49/1/11
f 96/31/211 3/3/212 95/30/213
f 51/5/13 52/7/15 62/1/21
f 51/5/13 62/1/21 63/12/17
f 62/32/21 88/1/169 64/7/18
f 76/7/214 77/18/26 89/1/215
f 76/7/214 89/1/215 88/7/169
f 89/18/215 99/6/170 88/7/169
s 0
f 62/1/216 52/7/216 76/1/216
f 62/1/216 76/1/216 88/7/216
s 1
f 89/18/215 98/16/171 99/6/170
f 89/18/215 90/15/217 98/16/171
f 90/15/217 97/17/172 98/16/171
f 90/15/217 3/1/212 97/17/172
f 3/3/212 96/31/211 97/17/172
s 0
f 90/15/218 14/1/218 3/3/218
f 12/1/219 32/2/219 31/4/219
f 12/1/219 31/4/219 14/1/219
f 31/4/220 15/1/220 14/1/220
f 90/1/221 78/1/221 12/1/221
f 90/1/221 12/1/221 14/4/221
f 17/1/222 12/1/222 18/4/222
f 12/1/223 28/2/223 18/2/223
f 7/2/224 83/1/224 30/1/224
f 83/30/225 26/4/225 30/2/225
s 1
f 7/2/226 84/31/227 83/30/228
s 0
f 7/2/229 85/17/229 84/31/229
s 1
f 7/2/230 78/15/23 85/17/25
s 0
f 77/18/231 87/6/231 86/16/231
s 1
f 77/18/26 76/7/214 87/6/232
f 76/1/214 52/7/15 87/6/232
f 52/7/15 56/6/14 87/6/232
f 51/1/13 50/1/233 57/8/16
f 77/33/26 78/34/23 90/1/217
f 77/33/26 90/1/217 89/18/215
s 0
f 17/2/234 32/1/234 12/1/234
f 78/15/235 7/2/235 12/2/235
